<svg width="816" height="816" viewBox="0 0 816 816" fill="none" xmlns="http://www.w3.org/2000/svg">
<rect x="4" y="4" width="808" height="808" rx="404" fill="white"/>
<rect x="4" y="4" width="808" height="808" rx="404" stroke="#C0C0C0" stroke-width="8"/>
<path d="M644.848 167.208C646.988 166.25 648.951 168.812 647.501 170.639L483.496 375.459C482.456 376.756 481.719 378.27 481.341 379.889C480.962 381.508 480.951 383.191 481.308 384.814C481.665 386.438 482.382 387.961 483.404 389.272C484.427 390.584 485.731 391.649 487.22 392.392L566.669 432.072C570.44 433.958 573.598 436.874 575.777 440.481C577.957 444.088 579.068 448.239 578.981 452.452C578.895 456.664 577.615 460.766 575.289 464.281C572.964 467.796 569.689 470.58 565.844 472.31L171.184 649.792C169.021 650.75 167.036 648.188 168.508 646.361L332.513 441.541C333.553 440.244 334.29 438.73 334.668 437.111C335.047 435.492 335.058 433.809 334.701 432.186C334.344 430.562 333.628 429.039 332.605 427.728C331.582 426.416 330.278 425.351 328.789 424.608L249.34 384.928C245.569 383.042 242.411 380.126 240.232 376.519C238.052 372.912 236.941 368.761 237.028 364.549C237.114 360.336 238.394 356.234 240.72 352.719C243.045 349.204 246.32 346.42 250.165 344.69L644.848 167.208Z" fill="#D9D9D9" stroke="#404040" stroke-width="50" stroke-linecap="round"/>
</svg>
